<?xml version="1.0" encoding="UTF-8"?>
<svg width="20px" height="20px" viewBox="0 0 20 20" version="1.1" xmlns="http://www.w3.org/2000/svg" xmlns:xlink="http://www.w3.org/1999/xlink">
    <!-- Generator: Sketch 55.1 (78136) - https://sketchapp.com -->
    <title>icon/close</title>
    <desc>Created with Sketch.</desc>
    <g id="icon/close" stroke="none" stroke-width="1" fill="none" fill-rule="evenodd">
        <path d="M10,8.58578644 L18.2928932,0.292893219 C18.6834175,-0.0976310729 19.3165825,-0.0976310729 19.7071068,0.292893219 C20.0976311,0.683417511 20.0976311,1.31658249 19.7071068,1.70710678 L11.4142136,10 L19.7071068,18.2928932 C20.0976311,18.6834175 20.0976311,19.3165825 19.7071068,19.7071068 C19.3165825,20.0976311 18.6834175,20.0976311 18.2928932,19.7071068 L10,11.4142136 L1.70710678,19.7071068 C1.31658249,20.0976311 0.683417511,20.0976311 0.292893219,19.7071068 C-0.0976310729,19.3165825 -0.0976310729,18.6834175 0.292893219,18.2928932 L8.58578644,10 L0.292893219,1.70710678 C-0.0976310729,1.31658249 -0.0976310729,0.683417511 0.292893219,0.292893219 C0.683417511,-0.0976310729 1.31658249,-0.0976310729 1.70710678,0.292893219 L10,8.58578644 Z" id="Combined-Shape" fill="#AAAAAA"></path>
    </g>
</svg>