<?xml version="1.0" encoding="UTF-8"?>
<svg width="192px" height="192px" viewBox="0 0 192 192" version="1.1" xmlns="http://www.w3.org/2000/svg" xmlns:xlink="http://www.w3.org/1999/xlink">
    <!-- Generator: Sketch 50.2 (55047) - http://www.bohemiancoding.com/sketch -->
    <title>Search</title>
    <desc>Created with Sketch.</desc>
    <defs></defs>
    <g id="Search" stroke="none" stroke-width="1" fill="none" fill-rule="evenodd">
        <g id="search-icon" transform="translate(17.000000, 17.000000)" fill="#B2B2B2">
            <path d="M67.9941686,15.8850772 C39.3269874,15.8850772 16.0013721,39.0411664 16.0013721,67.5 C16.0013721,95.9588336 39.3269874,119.114923 67.9941686,119.114923 C96.6730126,119.114923 119.998628,95.9588336 119.998628,67.5 C119.998628,39.0411664 96.6730126,15.8850772 67.9941686,15.8850772 M67.9941686,135 C30.5099048,135 0,104.723413 0,67.5 C0,30.2765866 30.5099048,0 67.9941686,0 C105.490095,0 136,30.2765866 136,67.5 C136,104.723413 105.490095,135 67.9941686,135" id="Fill-1"></path>
            <path d="M151.08181,159 C149.061864,159 147.030375,158.226727 145.495216,156.680182 L104.311396,115.512073 C101.229535,112.430524 101.229535,107.410023 104.311396,104.328474 C107.416342,101.223842 112.414266,101.223842 115.50767,104.328474 L156.679947,145.485042 C159.773351,148.578132 159.773351,153.587092 156.679947,156.680182 C155.144788,158.226727 153.113299,159 151.08181,159" id="Fill-4"></path>
        </g>
    </g>
</svg>