<?xml version="1.0" encoding="UTF-8"?>
<svg width="24px" height="24px" viewBox="0 0 24 24" version="1.1" xmlns="http://www.w3.org/2000/svg" xmlns:xlink="http://www.w3.org/1999/xlink">
    <!-- Generator: Sketch 53.2 (72643) - https://sketchapp.com -->
    <title>logo/confluence</title>
    <desc>Created with Sketch.</desc>
    <defs>
        <linearGradient x1="99.140087%" y1="65.7068123%" x2="33.8589812%" y2="46.9329228%" id="linearGradient-1">
            <stop stop-color="#0052CC" offset="18%"></stop>
            <stop stop-color="#2684FF" offset="100%"></stop>
        </linearGradient>
        <linearGradient x1="0.92569163%" y1="34.3043893%" x2="66.1800713%" y2="53.0862751%" id="linearGradient-2">
            <stop stop-color="#0052CC" offset="18%"></stop>
            <stop stop-color="#2684FF" offset="100%"></stop>
        </linearGradient>
    </defs>
    <g id="logo/confluence" stroke="none" stroke-width="1" fill="none" fill-rule="evenodd">
        <path d="M1.21125,18.44875 C0.9675,18.84625 0.69375,19.3075 0.46125,19.675 C0.25314445,20.0266724 0.364863839,20.4802198 0.7125,20.695 L5.5875,23.695 C5.75862252,23.800654 5.9650079,23.8331562 6.16031995,23.7852096 C6.355632,23.7372629 6.52350526,23.6128849 6.62625,23.44 C6.82125,23.11375 7.0725,22.69 7.34625,22.23625 C9.2775,19.04875 11.22,19.43875 14.7225,21.11125 L19.55625,23.41 C19.7393212,23.4971367 19.9498721,23.5064412 20.139916,23.4357929 C20.32996,23.3651446 20.4833042,23.2205631 20.565,23.035 L22.88625,17.785 C23.0502501,17.4100392 22.8833772,16.9728321 22.51125,16.8025 C21.49125,16.3225 19.4625,15.36625 17.63625,14.485 C11.06625,11.29375 5.4825,11.5 1.21125,18.44875 Z" id="Path" fill="url(#linearGradient-1)"></path>
        <path d="M23.07,6.535 C23.31375,6.1375 23.5875,5.67625 23.82,5.30875 C24.0281056,4.95707756 23.9163862,4.50353018 23.56875,4.28875 L18.69375,1.28875 C18.5212312,1.17255312 18.3082052,1.13321939 18.1055667,1.18014618 C17.9029283,1.22707297 17.7288784,1.35604533 17.625,1.53625 C17.43,1.8625 17.17875,2.28625 16.905,2.74 C14.97375,5.9275 13.03125,5.5375 9.52875,3.865 L4.71,1.5775 C4.52692876,1.49036331 4.31637791,1.48105883 4.12633397,1.55170713 C3.93629003,1.62235543 3.78294584,1.76693689 3.70125,1.9525 L1.38,7.2025 C1.21599991,7.57746084 1.38287283,8.01466788 1.755,8.185 C2.775,8.665 4.80375,9.62125 6.63,10.5025 C13.215,13.69 18.79875,13.47625 23.07,6.535 Z" id="Path" fill="url(#linearGradient-2)"></path>
    </g>
</svg>