<?xml version="1.0" encoding="UTF-8"?>
<svg width="24px" height="24px" viewBox="0 0 24 24" version="1.1" xmlns="http://www.w3.org/2000/svg" xmlns:xlink="http://www.w3.org/1999/xlink">
    <!-- Generator: Sketch 53.2 (72643) - https://sketchapp.com -->
    <title>logo/salesforce</title>
    <desc>Created with Sketch.</desc>
    <g id="logo/salesforce" stroke="none" stroke-width="1" fill="none" fill-rule="evenodd">
        <path d="M9.98769231,5.83692308 C10.7630769,5.03384615 11.8430769,4.52615385 13.0338462,4.52615385 C14.6215385,4.52615385 15.9969231,5.41230769 16.7353846,6.72307692 C17.3723077,6.43692308 18.0830769,6.28 18.8307692,6.28 C21.6923077,6.28 24,8.61538462 24,11.4953846 C24,14.3753846 21.6830769,16.7107692 18.8307692,16.7107692 C18.48,16.7107692 18.1384615,16.6738462 17.8153846,16.6092308 C17.1692308,17.7630769 15.9323077,18.5476923 14.5107692,18.5476923 C13.92,18.5476923 13.3569231,18.4092308 12.8584615,18.1692308 C12.2030769,19.7107692 10.6707692,20.8 8.88923077,20.8 C7.03384615,20.8 5.44615385,19.6276923 4.83692308,17.9753846 C4.56923077,18.0307692 4.29230769,18.0584615 4.01538462,18.0584615 C1.8,18.0584615 0.00923076923,16.2492308 0.00923076923,14.0061538 C0.00923076923,12.5107692 0.812307692,11.2 2.01230769,10.4984615 C1.76307692,9.93538462 1.62461538,9.30769231 1.62461538,8.64307692 C1.61538462,6.08615385 3.71076923,4 6.27692308,4 C7.79076923,4 9.13846154,4.72 9.98769231,5.83692308" id="Fill-1" fill="#00A1E0"></path>
        <path d="M3.48,12.7138462 L3.58153846,12.4461538 C3.6,12.4 3.62769231,12.4184615 3.64615385,12.4276923 C3.67384615,12.4461538 3.69230769,12.4553846 3.72923077,12.4830769 C4.01538462,12.6676923 4.28307692,12.6676923 4.36615385,12.6676923 C4.57846154,12.6676923 4.71692308,12.5569231 4.71692308,12.4 L4.71692308,12.3907692 C4.71692308,12.2246154 4.51384615,12.16 4.27384615,12.0861538 L4.21846154,12.0676923 C3.89538462,11.9753846 3.54461538,11.8369231 3.54461538,11.4307692 L3.54461538,11.4215385 C3.54461538,11.0338462 3.85846154,10.7569231 4.31076923,10.7569231 L4.35692308,10.7569231 C4.62461538,10.7569231 4.87384615,10.8307692 5.05846154,10.9507692 C5.07692308,10.96 5.09538462,10.9784615 5.08615385,11.0061538 C5.07692308,11.0338462 4.99384615,11.2461538 4.98461538,11.2738462 C4.96615385,11.32 4.92,11.2923077 4.92,11.2923077 C4.75384615,11.2 4.50461538,11.1353846 4.29230769,11.1353846 C4.09846154,11.1353846 3.97846154,11.2369231 3.97846154,11.3753846 L3.97846154,11.3846154 C3.97846154,11.5415385 4.19076923,11.6153846 4.43076923,11.6892308 L4.47692308,11.6984615 C4.8,11.8 5.14153846,11.9384615 5.14153846,12.3353846 L5.14153846,12.3446154 C5.14153846,12.7692308 4.83692308,13.0276923 4.34769231,13.0276923 C4.10769231,13.0276923 3.87692308,12.9907692 3.62769231,12.8615385 C3.58153846,12.8338462 3.53538462,12.8153846 3.48923077,12.7784615 C3.48,12.76 3.46153846,12.7507692 3.48,12.7138462 Z M10.68,12.7138462 L10.7815385,12.4461538 C10.8,12.4 10.8369231,12.4184615 10.8461538,12.4276923 C10.8738462,12.4461538 10.8923077,12.4553846 10.9292308,12.4830769 C11.2153846,12.6676923 11.4830769,12.6676923 11.5661538,12.6676923 C11.7784615,12.6676923 11.9169231,12.5569231 11.9169231,12.4 L11.9169231,12.3907692 C11.9169231,12.2246154 11.7138462,12.16 11.4738462,12.0861538 L11.4184615,12.0676923 C11.0953846,11.9753846 10.7446154,11.8369231 10.7446154,11.4307692 L10.7446154,11.4215385 C10.7446154,11.0338462 11.0584615,10.7569231 11.5107692,10.7569231 L11.5569231,10.7569231 C11.8246154,10.7569231 12.0738462,10.8307692 12.2584615,10.9507692 C12.2769231,10.96 12.2953846,10.9784615 12.2861538,11.0061538 C12.2769231,11.0338462 12.1938462,11.2461538 12.1846154,11.2738462 C12.1661538,11.32 12.12,11.2923077 12.12,11.2923077 C11.9538462,11.2 11.7046154,11.1353846 11.4923077,11.1353846 C11.2984615,11.1353846 11.1784615,11.2369231 11.1784615,11.3753846 L11.1784615,11.3846154 C11.1784615,11.5415385 11.3907692,11.6153846 11.6307692,11.6892308 L11.6769231,11.6984615 C12,11.8 12.3415385,11.9384615 12.3415385,12.3353846 L12.3415385,12.3446154 C12.3415385,12.7692308 12.0369231,13.0276923 11.5476923,13.0276923 C11.3076923,13.0276923 11.0769231,12.9907692 10.8276923,12.8615385 C10.7815385,12.8338462 10.7353846,12.8153846 10.6892308,12.7784615 C10.6892308,12.76 10.6707692,12.7507692 10.68,12.7138462 Z M16.0153846,11.4492308 C16.0523077,11.5876923 16.08,11.7353846 16.08,11.8923077 C16.08,12.0492308 16.0615385,12.1969231 16.0153846,12.3353846 C15.9784615,12.4738462 15.9138462,12.5938462 15.8307692,12.6953846 C15.7476923,12.7969231 15.6369231,12.88 15.5169231,12.9353846 C15.3876923,12.9907692 15.24,13.0184615 15.0738462,13.0184615 C14.9076923,13.0184615 14.76,12.9907692 14.6307692,12.9353846 C14.5015385,12.88 14.4,12.7969231 14.3169231,12.6953846 C14.2338462,12.5938462 14.1692308,12.4738462 14.1323077,12.3353846 C14.0953846,12.1969231 14.0676923,12.0492308 14.0676923,11.8923077 C14.0676923,11.7353846 14.0861538,11.5876923 14.1323077,11.4492308 C14.1692308,11.3107692 14.2338462,11.1907692 14.3169231,11.0892308 C14.4,10.9876923 14.5107692,10.9046154 14.6307692,10.8492308 C14.76,10.7938462 14.9076923,10.7569231 15.0738462,10.7569231 C15.24,10.7569231 15.3876923,10.7846154 15.5169231,10.8492308 C15.6461538,10.9046154 15.7476923,10.9876923 15.8307692,11.0892308 C15.9138462,11.1907692 15.9784615,11.3107692 16.0153846,11.4492308 Z M15.6,11.8830769 C15.6,11.6430769 15.5538462,11.4584615 15.4707692,11.3292308 C15.3876923,11.2 15.2492308,11.1353846 15.0738462,11.1353846 C14.8892308,11.1353846 14.76,11.2 14.6769231,11.3292308 C14.5938462,11.4584615 14.5476923,11.6430769 14.5476923,11.8830769 C14.5476923,12.1230769 14.5938462,12.3076923 14.6769231,12.4461538 C14.76,12.5753846 14.8892308,12.64 15.0738462,12.64 C15.2584615,12.64 15.3876923,12.5753846 15.4707692,12.4461538 C15.5630769,12.3169231 15.6,12.1230769 15.6,11.8830769 Z M19.3938462,12.5753846 L19.4953846,12.8523077 C19.5046154,12.8892308 19.4769231,12.8984615 19.4769231,12.8984615 C19.32,12.9630769 19.1076923,13 18.8953846,13 C18.5353846,13 18.2676923,12.8984615 18.0830769,12.6953846 C17.8984615,12.4923077 17.8061538,12.2153846 17.8061538,11.8738462 C17.8061538,11.7169231 17.8246154,11.5692308 17.8707692,11.4307692 C17.9169231,11.2923077 17.9815385,11.1723077 18.0738462,11.0707692 C18.1661538,10.9692308 18.2769231,10.8861538 18.4061538,10.8307692 C18.5353846,10.7753846 18.6923077,10.7384615 18.8676923,10.7384615 C18.9876923,10.7384615 19.0892308,10.7476923 19.1723077,10.7569231 C19.2646154,10.7753846 19.3938462,10.8030769 19.4492308,10.8307692 C19.4584615,10.8307692 19.4861538,10.8492308 19.4769231,10.8769231 C19.44,10.9876923 19.4123077,11.0615385 19.3753846,11.1538462 C19.3569231,11.2 19.3292308,11.1815385 19.3292308,11.1815385 C19.1907692,11.1353846 19.0615385,11.1169231 18.8953846,11.1169231 C18.6923077,11.1169231 18.5353846,11.1815385 18.4430769,11.32 C18.3415385,11.4492308 18.2861538,11.6246154 18.2861538,11.8646154 C18.2861538,12.1230769 18.3507692,12.3076923 18.4615385,12.4276923 C18.5723077,12.5476923 18.7292308,12.6030769 18.9323077,12.6030769 C19.0153846,12.6030769 19.0892308,12.5938462 19.1538462,12.5846154 C19.2184615,12.5753846 19.2830769,12.5569231 19.3476923,12.5292308 C19.3384615,12.5476923 19.3753846,12.5384615 19.3938462,12.5753846 Z M21.4892308,11.3661538 C21.5815385,11.68 21.5353846,11.9476923 21.5261538,11.9661538 C21.5261538,12.0030769 21.4892308,12.0030769 21.4892308,12.0030769 L20.0953846,12.0030769 C20.1046154,12.2153846 20.1507692,12.3630769 20.2615385,12.4646154 C20.3630769,12.5661538 20.52,12.6307692 20.7415385,12.6307692 C21.0738462,12.6307692 21.2123077,12.5661538 21.3138462,12.5292308 C21.3138462,12.5292308 21.3507692,12.52 21.3692308,12.5569231 L21.4615385,12.8153846 C21.48,12.8615385 21.4615385,12.8707692 21.4523077,12.88 C21.3692308,12.9261538 21.1569231,13.0184615 20.7507692,13.0184615 C20.5569231,13.0184615 20.3815385,12.9907692 20.2430769,12.9353846 C20.1046154,12.88 19.9846154,12.8061538 19.8923077,12.7046154 C19.8,12.6030769 19.7353846,12.4830769 19.6892308,12.3538462 C19.6430769,12.2153846 19.6246154,12.0676923 19.6246154,11.9107692 C19.6246154,11.7538462 19.6430769,11.6061538 19.6892308,11.4676923 C19.7261538,11.3292308 19.7907692,11.2092308 19.8738462,11.1076923 C19.9569231,11.0061538 20.0676923,10.9230769 20.1969231,10.8676923 C20.3261538,10.8030769 20.4830769,10.7753846 20.6584615,10.7753846 C20.8061538,10.7753846 20.9446154,10.8030769 21.0553846,10.8584615 C21.1384615,10.8953846 21.2307692,10.96 21.3230769,11.0615385 C21.3692308,11.0984615 21.4523077,11.2369231 21.4892308,11.3661538 Z M20.1046154,11.6615385 L21.0923077,11.6615385 C21.0830769,11.5323077 21.0553846,11.4215385 21,11.3292308 C20.9169231,11.2 20.7969231,11.1261538 20.6123077,11.1261538 C20.4276923,11.1261538 20.2984615,11.2 20.2153846,11.3292308 C20.16,11.4123077 20.1323077,11.5230769 20.1046154,11.6615385 Z M10.3476923,11.3661538 C10.44,11.68 10.3938462,11.9476923 10.3938462,11.9661538 C10.3938462,12.0030769 10.3569231,12.0030769 10.3569231,12.0030769 L8.96307692,12.0030769 C8.97230769,12.2153846 9.01846154,12.3630769 9.12923077,12.4646154 C9.23076923,12.5661538 9.38769231,12.6307692 9.60923077,12.6307692 C9.94153846,12.6307692 10.08,12.5661538 10.1815385,12.5292308 C10.1815385,12.5292308 10.2184615,12.52 10.2369231,12.5569231 L10.3292308,12.8153846 C10.3476923,12.8615385 10.3292308,12.8707692 10.32,12.88 C10.2369231,12.9261538 10.0246154,13.0184615 9.61846154,13.0184615 C9.42461538,13.0184615 9.24923077,12.9907692 9.11076923,12.9353846 C8.97230769,12.88 8.85230769,12.8061538 8.76,12.7046154 C8.66769231,12.6030769 8.60307692,12.4830769 8.55692308,12.3538462 C8.51076923,12.2153846 8.49230769,12.0676923 8.49230769,11.9107692 C8.49230769,11.7538462 8.51076923,11.6061538 8.55692308,11.4676923 C8.59384615,11.3292308 8.65846154,11.2092308 8.74153846,11.1076923 C8.82461538,11.0061538 8.93538462,10.9230769 9.06461538,10.8676923 C9.19384615,10.8030769 9.35076923,10.7753846 9.52615385,10.7753846 C9.67384615,10.7753846 9.81230769,10.8030769 9.92307692,10.8584615 C10.0061538,10.8953846 10.0984615,10.96 10.1907692,11.0615385 C10.2276923,11.0984615 10.32,11.2369231 10.3476923,11.3661538 Z M8.96307692,11.6615385 L9.96,11.6615385 C9.95076923,11.5323077 9.92307692,11.4215385 9.86769231,11.3292308 C9.78461538,11.2 9.66461538,11.1261538 9.48,11.1261538 C9.29538462,11.1261538 9.16615385,11.2 9.08307692,11.3292308 C9.01846154,11.4123077 8.99076923,11.5230769 8.96307692,11.6615385 Z M6.51692308,11.5876923 C6.51692308,11.5876923 6.62769231,11.5969231 6.74769231,11.6153846 L6.74769231,11.56 C6.74769231,11.3753846 6.71076923,11.2830769 6.63692308,11.2276923 C6.56307692,11.1723077 6.44307692,11.1353846 6.29538462,11.1353846 C6.29538462,11.1353846 5.95384615,11.1353846 5.68615385,11.2738462 C5.67692308,11.2830769 5.66769231,11.2830769 5.66769231,11.2830769 C5.66769231,11.2830769 5.63076923,11.2923077 5.62153846,11.2646154 L5.52,10.9969231 C5.50153846,10.96 5.52923077,10.9415385 5.52923077,10.9415385 C5.65846154,10.84 5.95384615,10.7846154 5.95384615,10.7846154 C6.05538462,10.7661538 6.22153846,10.7476923 6.32307692,10.7476923 C6.6,10.7476923 6.81230769,10.8123077 6.96,10.9415385 C7.10769231,11.0707692 7.18153846,11.2738462 7.18153846,11.56 L7.18153846,12.8338462 C7.18153846,12.8338462 7.18153846,12.8707692 7.15384615,12.88 C7.15384615,12.88 7.09846154,12.8984615 7.05230769,12.9076923 C7.00615385,12.9169231 6.84,12.9538462 6.70153846,12.9723077 C6.56307692,13 6.42461538,13.0092308 6.27692308,13.0092308 C6.13846154,13.0092308 6.01846154,13 5.90769231,12.9723077 C5.79692308,12.9446154 5.70461538,12.9076923 5.62153846,12.8523077 C5.54769231,12.7969231 5.48307692,12.7230769 5.43692308,12.6307692 C5.39076923,12.5476923 5.37230769,12.4369231 5.37230769,12.3169231 C5.37230769,12.1969231 5.4,12.0861538 5.44615385,11.9938462 C5.49230769,11.9015385 5.56615385,11.8276923 5.64923077,11.7630769 C5.73230769,11.6984615 5.83384615,11.6615385 5.93538462,11.6246154 C6.04615385,11.5969231 6.15692308,11.5784615 6.27692308,11.5784615 C6.38769231,11.5876923 6.46153846,11.5876923 6.51692308,11.5876923 Z M5.96307692,12.5661538 C5.96307692,12.5661538 6.09230769,12.6676923 6.36923077,12.6492308 C6.57230769,12.64 6.74769231,12.6030769 6.74769231,12.6030769 L6.74769231,11.9661538 C6.74769231,11.9661538 6.57230769,11.9384615 6.36923077,11.9384615 C6.08307692,11.9384615 5.96307692,12.04 5.96307692,12.04 C5.88,12.0953846 5.84307692,12.1876923 5.84307692,12.3076923 C5.84307692,12.3815385 5.86153846,12.4461538 5.88923077,12.4923077 C5.89846154,12.5107692 5.90769231,12.5292308 5.96307692,12.5661538 Z M17.7323077,10.8769231 C17.7230769,10.9138462 17.6492308,11.1076923 17.6307692,11.1723077 C17.6215385,11.2 17.6030769,11.2092308 17.5753846,11.2092308 C17.5753846,11.2092308 17.4923077,11.1907692 17.4184615,11.1907692 C17.3723077,11.1907692 17.2984615,11.2 17.2338462,11.2184615 C17.1692308,11.2369231 17.1138462,11.2738462 17.0584615,11.32 C17.0030769,11.3661538 16.9661538,11.44 16.9384615,11.5230769 C16.9107692,11.6061538 16.8923077,11.7446154 16.8923077,11.8923077 L16.8923077,12.9261538 C16.8923077,12.9538462 16.8738462,12.9723077 16.8461538,12.9723077 L16.4769231,12.9723077 C16.4492308,12.9723077 16.4307692,12.9538462 16.4307692,12.9261538 L16.4307692,10.8492308 C16.4307692,10.8215385 16.4492308,10.8030769 16.4676923,10.8030769 L16.8276923,10.8030769 C16.8553846,10.8030769 16.8646154,10.8215385 16.8646154,10.8492308 L16.8646154,11.0153846 C16.92,10.9415385 17.0123077,10.8769231 17.0953846,10.84 C17.1784615,10.8030769 17.28,10.7753846 17.4553846,10.7846154 C17.5476923,10.7938462 17.6676923,10.8123077 17.6861538,10.8215385 C17.7230769,10.8307692 17.7415385,10.84 17.7323077,10.8769231 Z M14.3076923,9.91692308 C14.3169231,9.91692308 14.3446154,9.93538462 14.3353846,9.96307692 L14.2246154,10.2584615 C14.2153846,10.2769231 14.2061538,10.2953846 14.16,10.2769231 C14.1507692,10.2769231 14.1323077,10.2676923 14.0861538,10.2584615 C14.0584615,10.2492308 14.0123077,10.2492308 13.9753846,10.2492308 C13.92,10.2492308 13.8738462,10.2584615 13.8276923,10.2676923 C13.7815385,10.2769231 13.7446154,10.3046154 13.7076923,10.3415385 C13.6707692,10.3784615 13.6338462,10.4246154 13.6061538,10.4892308 C13.5507692,10.6369231 13.5323077,10.7938462 13.5323077,10.8030769 L13.9753846,10.8030769 C14.0123077,10.8030769 14.0215385,10.8215385 14.0215385,10.8492308 L13.9661538,11.1353846 C13.9569231,11.1815385 13.92,11.1723077 13.92,11.1723077 L13.4584615,11.1723077 L13.1630769,12.9538462 C13.1261538,13.1384615 13.0892308,13.2953846 13.0430769,13.4246154 C12.9969231,13.5538462 12.9415385,13.6461538 12.8584615,13.7384615 C12.7846154,13.8215385 12.7015385,13.8861538 12.6,13.9138462 C12.5076923,13.9507692 12.3876923,13.9692308 12.2584615,13.9692308 C12.1938462,13.9692308 12.1292308,13.9692308 12.0553846,13.9507692 C12,13.9415385 11.9723077,13.9323077 11.9261538,13.9138462 C11.9076923,13.9046154 11.8984615,13.8861538 11.9076923,13.8584615 C11.9169231,13.8307692 12,13.6092308 12.0092308,13.5723077 C12.0276923,13.5353846 12.0553846,13.5538462 12.0553846,13.5538462 C12.0830769,13.5630769 12.1015385,13.5723077 12.1292308,13.5815385 C12.1661538,13.5907692 12.2030769,13.5907692 12.24,13.5907692 C12.3046154,13.5907692 12.36,13.5815385 12.4061538,13.5630769 C12.4615385,13.5446154 12.4984615,13.5076923 12.5353846,13.4615385 C12.5723077,13.4153846 12.6,13.3507692 12.6369231,13.2676923 C12.6646154,13.1846154 12.6923077,13.0646154 12.72,12.9261538 L13.0338462,11.1815385 L12.7292308,11.1815385 C12.6923077,11.1815385 12.6830769,11.1630769 12.6830769,11.1353846 L12.7384615,10.8492308 C12.7476923,10.8030769 12.7846154,10.8123077 12.7846154,10.8123077 L13.0984615,10.8123077 L13.1169231,10.72 C13.1630769,10.4430769 13.2553846,10.2307692 13.3938462,10.0923077 C13.5323077,9.95384615 13.7353846,9.88 13.9846154,9.88 C14.0584615,9.88 14.1230769,9.88923077 14.1784615,9.89846154 C14.2153846,9.88923077 14.2615385,9.89846154 14.3076923,9.91692308 Z M8.08615385,12.9169231 C8.08615385,12.9446154 8.06769231,12.9630769 8.04923077,12.9630769 L7.68,12.9630769 C7.65230769,12.9630769 7.64307692,12.9446154 7.64307692,12.9169231 L7.64307692,9.95384615 C7.64307692,9.93538462 7.66153846,9.90769231 7.68,9.90769231 L8.04923077,9.90769231 C8.07692308,9.90769231 8.08615385,9.92615385 8.08615385,9.95384615 L8.08615385,12.9169231 Z" id="Combined-Shape" fill="#FFFFFF" fill-rule="nonzero"></path>
    </g>
</svg>