<?xml version="1.0" encoding="UTF-8"?>
<svg width="24px" height="24px" viewBox="0 0 24 24" version="1.1" xmlns="http://www.w3.org/2000/svg" xmlns:xlink="http://www.w3.org/1999/xlink">
    <!-- Generator: Sketch 53.2 (72643) - https://sketchapp.com -->
    <title>logo/slack</title>
    <desc>Created with Sketch.</desc>
    <g id="logo/slack" stroke="none" stroke-width="1" fill="none" fill-rule="evenodd">
        <circle id="Oval" fill="#FFFFFF" cx="12.5" cy="11.5" r="11.5"></circle>
        <g id="Group" transform="translate(3.000000, 2.000000)" fill-rule="nonzero">
            <path d="M4,12 C4,13.1007752 3.10077519,14 2,14 C0.899224806,14 -1.687539e-14,13.1007752 -1.687539e-14,12 C-1.687539e-14,10.8992248 0.899224806,10 2,10 L4,10 L4,12 Z" id="Path" fill="#E01E5A"></path>
            <path d="M5,11.9982788 C5,10.8984509 5.89922481,10 7,10 C8.10077519,10 9,10.8984509 9,11.9982788 L9,17.0017212 C9,18.1015491 8.10077519,19 7,19 C5.89922481,19 5,18.1015491 5,17.0017212 L5,11.9982788 Z" id="Path" fill="#E01E5A"></path>
            <path d="M7,4 C5.89922481,4 5,3.10077519 5,2 C5,0.899224806 5.89922481,8.8817842e-16 7,8.8817842e-16 C8.10077519,8.8817842e-16 9,0.899224806 9,2 L9,4 L7,4 Z" id="Path" fill="#36C5F0"></path>
            <path d="M7.00172117,5 C8.10154905,5 9,5.89922481 9,7 C9,8.10077519 8.10154905,9 7.00172117,9 L1.99827883,9 C0.898450947,9 -6.57252031e-14,8.10077519 -6.57252031e-14,7 C-6.57252031e-14,5.89922481 0.898450947,5 1.99827883,5 L7.00172117,5 Z" id="Path" fill="#36C5F0"></path>
            <path d="M15,7 C15,5.89922481 15.8992248,5 17,5 C18.1007752,5 19,5.89922481 19,7 C19,8.10077519 18.1007752,9 17,9 L15,9 L15,7 Z" id="Path" fill="#2EB67D"></path>
            <path d="M14,7.00172117 C14,8.10154905 13.1007752,9 12,9 C10.8992248,9 10,8.10154905 10,7.00172117 L10,1.99827883 C10,0.898450947 10.8992248,1.77635684e-15 12,1.77635684e-15 C13.1007752,1.77635684e-15 14,0.898450947 14,1.99827883 L14,7.00172117 Z" id="Path" fill="#2EB67D"></path>
            <path d="M12,15 C13.1007752,15 14,15.8992248 14,17 C14,18.1007752 13.1007752,19 12,19 C10.8992248,19 10,18.1007752 10,17 L10,15 L12,15 Z" id="Path" fill="#ECB22E"></path>
            <path d="M11.9982788,14 C10.8984509,14 10,13.1007752 10,12 C10,10.8992248 10.8984509,10 11.9982788,10 L17.0017212,10 C18.1015491,10 19,10.8992248 19,12 C19,13.1007752 18.1015491,14 17.0017212,14 L11.9982788,14 Z" id="Path" fill="#ECB22E"></path>
        </g>
    </g>
</svg>